<?xml version="1.0" encoding="utf-8"?>
<!-- Generator: Adobe Illustrator 23.0.1, SVG Export Plug-In . SVG Version: 6.00 Build 0)  -->
<svg version="1.1" id="レイヤー_1" xmlns="http://www.w3.org/2000/svg" xmlns:xlink="http://www.w3.org/1999/xlink" x="0px"
	 y="0px" viewBox="0 0 221.034 44.074" style="enable-background:new 0 0 221.034 44.074;" xml:space="preserve">
<style type="text/css">
	.st0{fill:#FFE727;}
	.st1{fill:#333333;}
</style>
<g>
	<path class="st0" d="M42.725,0c-5.191,0-9.583,1.697-12.079,2.895c-0.499,0.2-0.799,0.699-0.799,1.198v33.042
		c0,0.699-0.599,1.398-1.398,1.398l0,0c-0.699,0-1.398-0.599-1.398-1.398V4.093c0-0.499-0.299-0.998-0.799-1.198
		C23.858,1.697,19.466,0,14.275,0C7.786,0,2.496,2.595,0.699,3.594C0.299,3.893,0,4.292,0,4.792v37.235
		c0,0.998,1.098,1.697,1.996,1.198c2.496-1.198,6.988-2.995,12.278-2.995c6.489,0,11.779,2.595,13.576,3.694
		c0.399,0.2,0.898,0.2,1.298,0c1.797-0.998,7.088-3.694,13.576-3.694c5.291,0,9.883,1.797,12.278,2.995
		c0.898,0.399,1.996-0.2,1.996-1.198V4.792c0-0.499-0.299-0.898-0.699-1.198C54.405,2.595,49.114,0,42.725,0z"/>
</g>
<g>
	<g>
		<path class="st1" d="M68.294,36.919h3.086c0.268,0,0.484,0.215,0.484,0.484s-0.215,0.491-0.484,0.491h-1.048v4.163
			c0,0.267-0.216,0.484-0.484,0.484s-0.491-0.215-0.491-0.484v-4.163h-1.064c-0.267,0-0.484-0.223-0.484-0.491
			C67.812,37.136,68.027,36.919,68.294,36.919z"/>
	</g>
	<g>
		<path class="st1" d="M77.51,41.008c0,0.268-0.105,0.528-0.297,0.721l-0.35,0.349c-0.193,0.193-0.446,0.298-0.721,0.298h-1.391
			c-0.274,0-0.527-0.105-0.721-0.298l-0.35-0.349c-0.192-0.193-0.297-0.454-0.297-0.721v-2.706c0-0.268,0.105-0.528,0.297-0.721
			l0.35-0.35c0.193-0.193,0.446-0.297,0.721-0.297h1.391c0.274,0,0.527,0.104,0.721,0.297l0.35,0.35
			c0.192,0.193,0.297,0.454,0.297,0.721V41.008z M76.544,38.444c0-0.105-0.037-0.201-0.112-0.275
			c-0.052-0.052-0.105-0.105-0.157-0.157c-0.074-0.067-0.17-0.112-0.268-0.112c-0.305,0-0.817,0-1.122,0
			c-0.097,0-0.194,0.045-0.268,0.112c-0.052,0.052-0.105,0.105-0.156,0.157c-0.075,0.074-0.113,0.17-0.113,0.275
			c0,0.52,0,1.903,0,2.423c0,0.105,0.037,0.2,0.113,0.275c0.052,0.052,0.104,0.105,0.156,0.157c0.074,0.067,0.17,0.112,0.268,0.112
			c0.305,0,0.817,0,1.122,0c0.097,0,0.194-0.045,0.268-0.112c0.052-0.052,0.105-0.105,0.157-0.157
			c0.075-0.075,0.112-0.17,0.112-0.275C76.544,40.347,76.544,38.964,76.544,38.444z"/>
	</g>
	<g>
		<path class="st1" d="M81.519,38.867l1.717,2.891c0.134,0.23,0.052,0.528-0.178,0.669c-0.231,0.134-0.528,0.052-0.663-0.178
			l-1.613-2.722l-0.632,0.565v1.933c0,0.267-0.215,0.484-0.484,0.484c-0.268,0-0.484-0.215-0.484-0.484v-4.721
			c0-0.268,0.215-0.484,0.484-0.484c0.268,0,0.484,0.215,0.484,0.484v1.487l2.015-1.815c0.2-0.178,0.505-0.164,0.684,0.038
			c0.178,0.192,0.164,0.505-0.037,0.684L81.519,38.867z"/>
	</g>
	<g>
		<path class="st1" d="M86.489,41.982v-1.918l-1.709-2.601c-0.15-0.231-0.082-0.528,0.142-0.677c0.223-0.142,0.528-0.082,0.669,0.15
			l1.383,2.127l1.331-2.112c0.149-0.223,0.446-0.29,0.669-0.149c0.229,0.142,0.297,0.439,0.156,0.669l-1.666,2.594v1.918
			c0,0.268-0.215,0.491-0.483,0.491C86.713,42.473,86.489,42.25,86.489,41.982z"/>
	</g>
	<g>
		<path class="st1" d="M94.769,41.008c0,0.268-0.105,0.528-0.297,0.721l-0.35,0.349c-0.193,0.193-0.446,0.298-0.721,0.298h-1.39
			c-0.274,0-0.527-0.105-0.721-0.298l-0.35-0.349c-0.192-0.193-0.297-0.454-0.297-0.721v-2.706c0-0.268,0.105-0.528,0.297-0.721
			l0.35-0.35c0.193-0.193,0.446-0.297,0.721-0.297h1.391c0.274,0,0.527,0.104,0.721,0.297l0.35,0.35
			c0.192,0.193,0.297,0.454,0.297,0.721L94.769,41.008L94.769,41.008z M93.803,38.444c0-0.105-0.037-0.201-0.112-0.275
			c-0.052-0.052-0.105-0.105-0.157-0.157c-0.074-0.067-0.17-0.112-0.268-0.112c-0.305,0-0.817,0-1.122,0
			c-0.097,0-0.194,0.045-0.268,0.112c-0.052,0.052-0.105,0.105-0.156,0.157c-0.075,0.074-0.113,0.17-0.113,0.275
			c0,0.52,0,1.903,0,2.423c0,0.105,0.037,0.2,0.113,0.275c0.052,0.052,0.104,0.105,0.156,0.157c0.074,0.067,0.17,0.112,0.268,0.112
			c0.305,0,0.817,0,1.122,0c0.097,0,0.194-0.045,0.268-0.112c0.052-0.052,0.105-0.105,0.157-0.157
			c0.075-0.075,0.112-0.17,0.112-0.275C93.803,40.347,93.803,38.964,93.803,38.444z"/>
	</g>
	<g>
		<path class="st1" d="M103.696,38.867c0,0.2-0.097,0.387-0.253,0.512c-0.112,0.082-0.215,0.17-0.215,0.17l0.223,0.164
			c0.215,0.164,0.342,0.409,0.342,0.676v0.804c0,0.26-0.142,0.505-0.364,0.639l-0.587,0.364c-0.163,0.097-0.356,0.156-0.549,0.156
			h-1.636c-0.416,0-0.743-0.335-0.743-0.743v-3.926c0-0.409,0.327-0.743,0.743-0.743h1.494c0.178,0,0.357,0.052,0.52,0.142
			l0.661,0.38c0.231,0.126,0.364,0.372,0.364,0.631C103.696,38.093,103.696,38.867,103.696,38.867z M102.291,37.96
			c-0.06-0.037-0.134-0.06-0.207-0.06h-1.205v1.219h1.205c0.089,0,0.178-0.038,0.245-0.089l0.274-0.223
			c0.082-0.068,0.127-0.157,0.127-0.26v-0.164c0-0.097-0.052-0.185-0.134-0.237L102.291,37.96z M100.879,40.087v1.301h1.309
			c0.074,0,0.148-0.023,0.215-0.06l0.282-0.178c0.09-0.052,0.134-0.149,0.134-0.245v-0.29c0-0.097-0.044-0.193-0.126-0.253
			l-0.26-0.193c-0.067-0.052-0.149-0.082-0.238-0.082L100.879,40.087C100.879,40.086,100.879,40.087,100.879,40.087z"/>
	</g>
	<g>
		<path class="st1" d="M106.826,38.473c0.142-0.142,0.335-0.223,0.535-0.223h0.364c0.252,0,0.461,0.207,0.461,0.468
			c0,0.253-0.208,0.462-0.461,0.462h-0.283l-1.004,0.951v1.851c0,0.26-0.2,0.469-0.461,0.469c-0.253,0-0.461-0.208-0.461-0.469
			v-3.383c0-0.253,0.207-0.461,0.461-0.461c0.26,0,0.461,0.207,0.461,0.461v0.312L106.826,38.473z"/>
	</g>
	<g>
		<path class="st1" d="M112.617,42.042c-0.194,0.186-0.446,0.298-0.721,0.298h-0.93c-0.274,0-0.528-0.112-0.721-0.298l-0.342-0.342
			c-0.186-0.193-0.298-0.446-0.298-0.721v-1.368c0-0.267,0.112-0.528,0.298-0.713l0.342-0.342c0.192-0.193,0.446-0.298,0.721-0.298
			h0.93c0.275,0,0.527,0.105,0.721,0.298l0.342,0.342c0.186,0.185,0.297,0.446,0.297,0.713v1.368c0,0.275-0.111,0.528-0.297,0.721
			L112.617,42.042z M111.777,41.41c0.105,0,0.2-0.038,0.268-0.112c0.06-0.052,0.119-0.112,0.17-0.171
			c0.075-0.067,0.112-0.163,0.112-0.267c0-0.305,0-0.826,0-1.123c0-0.105-0.037-0.2-0.112-0.275
			c-0.052-0.052-0.112-0.112-0.17-0.164c-0.067-0.075-0.164-0.112-0.268-0.112c-0.207,0-0.484,0-0.691,0
			c-0.105,0-0.201,0.037-0.268,0.112c-0.06,0.052-0.112,0.112-0.17,0.164c-0.074,0.075-0.112,0.17-0.112,0.275
			c0,0.297,0,0.818,0,1.123c0,0.105,0.038,0.2,0.112,0.267c0.06,0.06,0.112,0.12,0.17,0.171c0.067,0.074,0.164,0.112,0.268,0.112
			C111.293,41.41,111.568,41.41,111.777,41.41z"/>
	</g>
	<g>
		<path class="st1" d="M117.666,38.257c0.409,0,0.744,0.335,0.744,0.743v0.432c0,0.26-0.208,0.469-0.462,0.469
			c-0.26,0-0.468-0.208-0.468-0.469v-0.245c-0.343,0-0.855,0-1.138,0c-0.105,0-0.2,0.037-0.275,0.112
			c-0.052,0.06-0.112,0.112-0.164,0.17c-0.075,0.068-0.112,0.164-0.112,0.268c0,0.305,0,0.818,0,1.123
			c0,0.105,0.037,0.2,0.112,0.267c0.052,0.06,0.112,0.12,0.164,0.171c0.075,0.074,0.17,0.112,0.275,0.112c0.282,0,0.796,0,1.138,0
			v-0.223c0-0.253,0.207-0.462,0.468-0.462c0.253,0,0.462,0.208,0.462,0.462v0.409c0,0.409-0.335,0.744-0.744,0.744h-1.45
			c-0.268,0-0.461-0.068-0.714-0.298L115.16,41.7c-0.192-0.193-0.297-0.446-0.297-0.721v-1.36c0-0.268,0.082-0.484,0.297-0.721
			l0.342-0.342c0.186-0.186,0.446-0.298,0.714-0.298C116.216,38.257,117.666,38.257,117.666,38.257z"/>
	</g>
	<g>
		<path class="st1" d="M122.265,38.265c0.275,0,0.528,0.105,0.721,0.298l0.342,0.342c0.193,0.186,0.298,0.446,0.298,0.714v2.401
			c0,0.253-0.208,0.462-0.461,0.462c-0.26,0-0.469-0.208-0.469-0.462c0-0.647,0-1.821,0-2.275c0-0.105-0.037-0.2-0.113-0.275
			c-0.052-0.052-0.111-0.112-0.17-0.17c-0.068-0.067-0.164-0.112-0.268-0.112c-0.268,0-0.721,0-1.071,0v2.84
			c0,0.253-0.208,0.461-0.469,0.461c-0.253,0-0.461-0.207-0.461-0.372v-4.765c0-0.35,0.207-0.557,0.461-0.557
			c0.26,0,0.469,0.207,0.469,0.468v1.004L122.265,38.265L122.265,38.265z"/>
	</g>
	<g>
		<path class="st1" d="M128.792,40.986c0,0.268-0.105,0.528-0.297,0.714l-0.342,0.342c-0.186,0.193-0.446,0.298-0.722,0.298h-0.758
			c-0.268,0-0.528-0.105-0.721-0.298L125.61,41.7c-0.185-0.186-0.297-0.446-0.297-0.714v-2.409c0-0.253,0.208-0.461,0.469-0.461
			c0.253,0,0.461,0.207,0.461,0.461c0,0.625,0,1.843,0,2.282c0,0.105,0.045,0.2,0.112,0.275c0.06,0.052,0.112,0.112,0.17,0.164
			c0.075,0.074,0.171,0.112,0.268,0.112c0.164,0,0.356,0,0.52,0c0.105,0,0.2-0.038,0.268-0.112c0.06-0.052,0.119-0.112,0.17-0.164
			c0.075-0.075,0.112-0.17,0.112-0.275c0-0.439,0-1.658,0-2.282c0-0.253,0.208-0.461,0.469-0.461c0.253,0,0.461,0.207,0.461,0.461
			L128.792,40.986L128.792,40.986z"/>
	</g>
	<g>
		<path class="st1" d="M131.936,38.473c0.142-0.142,0.334-0.223,0.535-0.223h0.364c0.252,0,0.462,0.207,0.462,0.468
			c0,0.253-0.208,0.462-0.462,0.462h-0.283l-1.003,0.951v1.851c0,0.26-0.2,0.469-0.461,0.469c-0.253,0-0.462-0.208-0.462-0.469
			v-3.383c0-0.253,0.207-0.461,0.462-0.461c0.26,0,0.461,0.207,0.461,0.461v0.312L131.936,38.473z"/>
	</g>
	<g>
		<path class="st1" d="M137.537,38.25c0.409,0,0.743,0.335,0.743,0.743v0.922c0,0.409-0.335,0.744-0.743,0.744h-1.925
			c0,0.067,0,0.134,0,0.193c0,0.104,0.037,0.2,0.111,0.267c0.053,0.06,0.113,0.112,0.171,0.17c0.067,0.075,0.163,0.112,0.267,0.112
			c0.298,0,0.832,0,1.189,0v-0.149c0-0.253,0.207-0.461,0.469-0.461c0.252,0,0.461,0.207,0.461,0.461v0.327
			c0,0.409-0.335,0.743-0.743,0.743l-1.494,0.007c-0.275,0-0.528-0.111-0.721-0.297l-0.342-0.342
			c-0.186-0.193-0.297-0.446-0.297-0.721v-1.368c0-0.268,0.111-0.528,0.297-0.721l0.342-0.335c0.193-0.193,0.446-0.297,0.721-0.297
			L137.537,38.25L137.537,38.25z M137.351,39.737v-0.565c-0.357,0-0.892,0-1.189,0c-0.104,0-0.2,0.044-0.267,0.112
			c-0.06,0.06-0.113,0.112-0.163,0.163c-0.075,0.075-0.119,0.178-0.119,0.29H137.351L137.351,39.737z"/>
	</g>
	<g>
		<path class="st1" d="M142.102,38.257c0.535,0,0.974,0.417,0.974,0.832v0.305c0,0.253-0.207,0.461-0.469,0.461
			c-0.252,0-0.461-0.207-0.461-0.461c0-0.015,0-0.038,0-0.06c0-0.044-0.015-0.081-0.045-0.112c-0.029-0.022-0.067-0.037-0.104-0.037
			c-0.26,0-0.662,0-0.922,0c-0.037,0-0.164,0.015-0.193,0.037c-0.022,0.03-0.044,0.068-0.044,0.112c0,0.038,0,0.082,0,0.127
			c0,0.097,0.06,0.178,0.148,0.2l1.413,0.417c0.387,0.119,0.654,0.372,0.654,0.796v0.409c0,0.662-0.297,1.056-1.055,1.056h-1.056
			c-0.617,0-1.055-0.245-1.055-0.855v-0.282c0-0.26,0.223-0.469,0.476-0.469c0.26,0,0.454,0.208,0.454,0.469c0,0.023,0,0.037,0,0.06
			c0,0.038,0.015,0.075,0.044,0.105c0.022,0.03,0.06,0.045,0.105,0.045c0.26,0,0.751,0,1.011,0c0.038,0,0.082-0.015,0.104-0.045
			c0.03-0.03,0.045-0.067,0.045-0.105c0-0.037,0-0.082,0-0.126c0-0.097-0.06-0.178-0.149-0.208l-1.457-0.484
			c-0.343-0.105-0.61-0.401-0.61-0.744v-0.527c0-0.35,0.298-0.914,1.018-0.914L142.102,38.257L142.102,38.257z"/>
	</g>
</g>
<g>
	<path class="st1" d="M68.333,13.594l2.832-2.03c-0.114,0-0.262-0.017-0.376-0.032c-0.622-0.114-0.951-0.606-0.951-1.114
		l0.017-4.355c0-0.606,0.49-1.079,1.079-1.079c0.703,0,2.079,0,2.079,0V4.426h-3.601c-0.606,0-1.081-0.49-1.081-1.097
		c0-0.59,0.475-1.081,1.081-1.081h3.601V1.677c0-0.606,0.475-1.114,1.081-1.114c0.589,0,1.081,0.508,1.081,1.114V2.25h3.7
		c0.606,0,1.079,0.49,1.079,1.081c0,0.606-0.475,1.097-1.079,1.097h-3.7v0.573c1.424-0.016,1.67,0,2.127,0
		c0.589,0,1.064,0.492,1.064,1.081v4.355c0,0.573-0.36,1.031-1.097,1.081c-0.033,0-0.213,0-0.279,0l2.127,1.687h0.017
		c0.606,0,1.064,0.508,1.064,1.097c0,0.49-0.295,1.162-1.098,1.162h-0.258c-0.263,0-0.672-0.131-1.048-0.41l-2.619-2.276v2.489
		c0,0.606-0.492,1.097-1.081,1.097c-0.606,0-1.081-0.49-1.081-1.097v-2.489l-3.274,2.456c-0.442,0.393-1.146,0.343-1.538-0.114
		C67.81,14.659,67.874,13.989,68.333,13.594z M72,7.489h0.999v-0.54H72V7.489z M72,9.683c0.327,0.017,0.671,0.032,0.999,0.049V9.125
		H72V9.683z M75.176,7.489h1.015v-0.54h-1.015V7.489z M75.176,9.732c0.343-0.017,0.655-0.032,1.015-0.066v-0.54h-1.015V9.732z"/>
</g>
<g>
	<path class="st1" d="M86.787,11.564c0.393,0.459,0.344,1.146-0.114,1.54L85.379,14.2c-0.442,0.393-1.131,0.343-1.522-0.114
		c-0.393-0.442-0.343-1.129,0.114-1.523l1.277-1.098C85.707,11.074,86.395,11.123,86.787,11.564z M84.938,2.545h3.733v-0.59
		c0-0.638,0.507-1.162,1.162-1.162c0.639,0,1.145,0.523,1.145,1.162v0.59h3.667c0.542,0,0.983,0.442,0.983,0.982
		s-0.442,0.966-0.983,0.966h-9.707c-0.54,0-0.966-0.426-0.966-0.966S84.398,2.545,84.938,2.545z M88.801,13.906v-3.045
		c-0.458-0.016-0.851-0.016-1.538-0.114c-0.639-0.033-1.114-0.442-1.114-1.081V6.392c0-0.59,0.475-1.081,1.064-1.081h5.025
		c0.72,0.017,1.081,0.523,1.081,1.081v3.274c0,0.589-0.426,0.982-1.081,1.081c-0.359,0.066-0.884,0.114-1.261,0.099v4.191
		c-0.049,0.539-0.556,1.048-1.097,1.048h-1.308c-0.589,0-1.079-0.509-1.079-1.114c0-0.589,0.49-1.064,1.079-1.064h0.229V13.906z
		 M91.158,8.684V7.471h-2.849v1.212C89.194,8.749,90.126,8.765,91.158,8.684z M92.567,11.631c0.36-0.475,1.048-0.573,1.522-0.213
		l1.277,1.015c0.475,0.36,0.573,1.048,0.213,1.523c-0.377,0.475-1.048,0.573-1.522,0.213l-1.278-1.015
		C92.304,12.777,92.206,12.105,92.567,11.631z"/>
</g>
<g>
	<path class="st1" d="M112.944,13.792v1.244c0,0.458-0.393,0.868-0.851,0.899c-0.703,0.066-1.245,0.099-2.096,0.05
		c-0.523-0.033-0.949-0.426-0.949-0.949c0,0,0-4.094,0-4.829c-0.099,0-0.196,0-0.295,0V10.6c0,0.77-0.163,1.129-0.393,1.638
		l-1.588,2.979c-0.246,0.459-0.802,0.639-1.26,0.393l-0.017-0.017c-0.18,0.213-0.442,0.36-0.738,0.36c0,0-2.766,0-3.733,0
		c-0.393,0-0.933-0.279-0.933-0.933V9.584c0-0.082,0.017-0.163,0.032-0.229l-0.458,0.556c-0.326,0.393-0.964,0.442-1.358,0.114
		c-0.376-0.327-0.376-0.982-0.097-1.359l1.85-2.193h-0.163c-0.523,0-0.933-0.41-0.933-0.918c0-0.523,0.41-0.933,0.933-0.933h1.54
		V4.165h-0.393c-0.36,0.442-0.999,0.54-1.474,0.197s-0.492-1.031-0.147-1.507l1.178-1.538c0.36-0.492,1.031-0.622,1.505-0.279
		c0.442,0.327,0.557,0.802,0.312,1.277h2.307c0.509,0,0.933,0.41,0.933,0.918c0,0.523-0.426,0.933-0.933,0.933h-1.129v0.459h1.327
		c0.509,0,0.918,0.409,0.918,0.933c0,0.508-0.409,0.918-0.918,0.918h-0.835c0.18,0.13,0.295,0.327,0.295,0.539v0.41
		c0,0.213-0.114,0.393-0.295,0.523h0.851c0.508,0,0.933,0.409,0.933,0.933c0,0.508-0.426,0.933-0.933,0.933h-0.556v0.492h0.523
		c0.376,0,0.688,0.31,0.688,0.688c0,0.393-0.312,0.703-0.688,0.703h-0.523v0.456h0.49c0.376,0,0.688,0.31,0.688,0.703
		c0,0.377-0.312,0.689-0.688,0.689h-0.49v0.539h0.376c0.163,0,0.327,0.033,0.459,0.114c0.523-0.949,1.048-1.964,1.458-2.783
		c0.179-0.377,0.213-0.523,0.229-0.835v-0.49c-0.557-0.049-0.982-0.523-0.982-1.079v-6.14c0-0.573,0.442-1.031,1.081-1.081h4.043
		c0.639,0.017,1.048,0.426,1.048,1.064V8.96c0,0.606-0.376,1.031-1.015,1.081c-0.033,0-0.13,0.017-0.163,0.017v4.093
		c0.082,0,0.197,0,0.279,0v-0.36c0-0.492,0.376-0.884,0.866-0.884C112.552,12.908,112.944,13.3,112.944,13.792z M102.548,7.423
		V7.014c0-0.213,0.099-0.409,0.279-0.539h-0.343l-1.212,1.473h1.555C102.648,7.816,102.548,7.636,102.548,7.423z M102.648,9.813
		h-0.688v0.492h0.688V9.813z M102.648,11.696h-0.688v0.459h0.688V11.696z M102.648,13.546h-0.688v0.539h0.688V13.546z
		 M109.932,3.396h-1.85v0.606h1.85V3.396z M109.932,5.622h-1.85v0.656h1.85V5.622z M109.932,7.915h-1.85v0.606
		c0.689,0.033,1.114,0.05,1.85-0.017V7.915z"/>
</g>
<g>
	<path class="st1" d="M117.009,6.474h3.944v-4.37c0-0.606,0.475-1.081,1.081-1.081c0.589,0,1.079,0.475,1.079,1.081v4.372h3.798
		c0.606,0,1.079,0.49,1.079,1.079c0,0.606-0.475,1.081-1.079,1.081h-2.227v5.157c0.263,0.017,0.54,0.017,0.918-0.017v-0.671
		c0-0.606,0.475-1.081,1.081-1.081s1.097,0.475,1.097,1.081v1.686c0,0.523-0.376,0.999-0.884,1.098
		c-0.802,0.13-2.096,0.18-3.291,0.066c-0.589-0.049-1.081-0.507-1.081-1.097V8.635h-1.179v0.933
		c-0.032,1.015-0.376,1.654-0.655,2.129l-2.406,3.831c-0.329,0.49-1.015,0.655-1.522,0.327c-0.49-0.327-0.606-1.015-0.277-1.523
		c0.802-1.294,1.67-2.538,2.325-3.733c0.246-0.426,0.343-0.655,0.377-1.294c0-0.049,0-0.262,0-0.671h-2.177
		c-0.606,0-1.098-0.475-1.098-1.081C115.913,6.964,116.405,6.474,117.009,6.474z M118.303,5.622c-0.59,0-1.081-0.49-1.081-1.079
		V3.264c0-0.606,0.49-1.079,1.081-1.079c0.606,0,1.079,0.475,1.079,1.079v1.278C119.383,5.131,118.909,5.622,118.303,5.622z
		 M125.768,5.672c-0.589,0-1.081-0.475-1.081-1.081V3.314c0-0.589,0.492-1.081,1.081-1.081c0.606,0,1.081,0.492,1.081,1.081v1.277
		C126.849,5.197,126.373,5.672,125.768,5.672z"/>
</g>
<g>
	<path class="st1" d="M131.597,7.178c0-0.59,0.475-1.098,1.081-1.098h9.445c0.59,0,1.081,0.459,1.081,1.048
		c0,0.606-0.49,1.129-1.081,1.129h-2.946c0,0.377,0,0.933,0,0.933c-0.016,0.426-0.097,0.901-0.197,1.195
		c-0.442,1.44-1.277,3.242-2.34,4.993c-0.31,0.507-1.048,0.688-1.555,0.376c-0.523-0.327-0.606-0.982-0.31-1.523
		c0.866-1.588,1.62-2.783,2.127-4.323c0.066-0.229,0.099-0.573,0.099-0.818V8.308h-4.322C132.071,8.308,131.597,7.783,131.597,7.178
		z M140.077,2.283c0.606,0,1.079,0.475,1.079,1.079c0,0.589-0.475,1.081-1.079,1.081h-4.928c-0.589,0-1.081-0.492-1.081-1.081
		c0-0.606,0.492-1.079,1.081-1.079H140.077z M143.139,3.74v0.901c0,0.458-0.377,0.818-0.819,0.818s-0.818-0.36-0.818-0.818V3.74
		c0-0.442,0.376-0.802,0.818-0.802C142.762,2.937,143.139,3.297,143.139,3.74z M145.185,3.74v0.901c0,0.458-0.36,0.818-0.802,0.818
		c-0.458,0-0.818-0.36-0.818-0.818V3.74c0-0.442,0.36-0.802,0.818-0.802C144.825,2.937,145.185,3.297,145.185,3.74z"/>
</g>
<g>
	<path class="st1" d="M152.116,3.87c0,0.59-0.475,1.081-1.079,1.081h-1.408c-0.589,0-1.081-0.49-1.081-1.081
		c0-0.606,0.492-1.097,1.081-1.097h1.408C151.643,2.774,152.116,3.264,152.116,3.87z M152.116,7.341
		c0,0.606-0.475,1.079-1.079,1.079h-1.408c-0.589,0-1.081-0.475-1.081-1.079c0-0.59,0.492-1.081,1.081-1.081h1.408
		C151.643,6.261,152.116,6.751,152.116,7.341z M159.075,6.441c-0.738,3.012-1.834,5.337-3.978,6.876
		c-1.31,0.949-3.028,1.588-4.928,1.981c-0.851,0.163-1.261-0.426-1.359-0.884c-0.114-0.573,0.312-1.129,0.884-1.261
		c1.966-0.442,3.095-0.819,4.093-1.571c1.49-1.097,2.636-2.915,3.242-5.811c0.13-0.59,0.786-0.901,1.359-0.72
		C158.944,5.23,159.223,5.869,159.075,6.441z M157.389,2.708v0.901c0,0.442-0.36,0.819-0.818,0.819
		c-0.442,0-0.802-0.377-0.802-0.819V2.708c0-0.459,0.36-0.819,0.802-0.819C157.028,1.889,157.389,2.249,157.389,2.708z
		 M159.452,2.708v0.901c0,0.442-0.376,0.819-0.818,0.819s-0.819-0.377-0.819-0.819V2.708c0-0.459,0.377-0.819,0.819-0.819
		S159.452,2.249,159.452,2.708z"/>
</g>
<g>
	<path class="st1" d="M168.376,2.937l-0.179,0.279h3.322c0.655,0,1.098,0.508,1.098,1.114c-0.017,1.179,0.017,2.587,0,3.159
		c-0.05,0.884-0.262,1.605-0.703,2.276c-1.261,1.867-2.979,3.929-4.895,5.763c-0.426,0.409-1.195,0.426-1.605-0.017
		c-0.409-0.426-0.343-1.097,0.05-1.538c2.635-2.816,4.961-5.222,4.993-6.417c0-0.638-0.017-1.408-0.017-2.177h-3.764l-1.538,2.177
		c-0.344,0.492-1.032,0.589-1.507,0.246c-0.49-0.343-0.606-1.031-0.246-1.505l3.242-4.616c0.343-0.492,1.064-0.639,1.554-0.295
		C168.671,1.726,168.736,2.446,168.376,2.937z M167.034,9.24c-0.606,0-1.098-0.49-1.098-1.098c0-0.589,0.492-1.079,1.098-1.079
		h1.538c0.606,0,1.081,0.49,1.081,1.079c0,0.606-0.475,1.098-1.081,1.098H167.034z"/>
</g>
<g>
	<path class="st1" d="M175.949,14.545c-0.509-0.343-0.557-0.998-0.246-1.523c1.194-1.966,1.571-2.506,2.259-4.094
		c0.179-0.409,0.229-0.753,0.229-1.474c0-1.178,0.017-1.62-0.017-2.995c0-0.606,0.475-1.098,1.064-1.098
		c0.606-0.017,1.097,0.475,1.097,1.064c0,1.703,0.017,3.012-0.017,3.798c-0.049,0.965-0.966,3.175-2.799,5.991
		C177.193,14.725,176.44,14.871,175.949,14.545z M188.504,10.043c0.426,0.409,0.442,1.015,0.017,1.571
		c-1.015,1.31-1.85,2.046-2.915,2.668c-0.523,0.312-1.637,0.769-2.799,0.802c-0.606,0.017-1.081-0.393-1.081-1.129V3.609
		c0-0.606,0.49-1.097,1.081-1.097c0.606,0,1.081,0.49,1.081,1.097v9.152c0.327-0.066,0.539-0.149,0.721-0.262
		c0.916-0.557,1.375-1.048,2.39-2.292C187.375,9.747,188.064,9.633,188.504,10.043z"/>
</g>
<g>
	<g>
		<path class="st1" d="M67.902,31.672c-0.509-0.327-0.639-0.982-0.312-1.49c1.637-2.652,2.407-3.961,2.768-5.337
			c0.262-1.032,0.179-1.998,0.179-3.405c0-0.606,0.49-1.081,1.081-1.081c0.606,0,1.081,0.49,1.081,1.081
			c0,1.604,0.049,2.733-0.279,3.977c-0.246,0.982-1.735,4.126-3.028,5.943C69.047,31.852,68.392,32.015,67.902,31.672z
			 M80.293,30.149c0.329,0.508,0.197,1.178-0.31,1.507c-0.492,0.327-1.146,0.18-1.49-0.312c-1.294-1.834-2.799-4.944-3.028-5.926
			c-0.343-1.391-0.279-2.374-0.279-3.977c0-0.59,0.475-1.081,1.079-1.081c0.59,0,1.081,0.475,1.081,1.081
			c0,1.407-0.097,2.373,0.18,3.405C77.87,26.171,78.656,27.497,80.293,30.149z M80.785,20.981c0,0.802-0.639,1.44-1.44,1.44
			c-0.786,0-1.425-0.638-1.425-1.44c0-0.786,0.639-1.425,1.425-1.425C80.146,19.556,80.785,20.195,80.785,20.981z M79.999,20.981
			c0-0.36-0.295-0.639-0.655-0.639c-0.344,0-0.639,0.279-0.639,0.639c0,0.343,0.295,0.639,0.639,0.639
			C79.704,21.62,79.999,21.324,79.999,20.981z"/>
	</g>
	<g>
		<path class="st1" d="M85.113,22.961c-0.523-0.295-0.705-0.949-0.41-1.474c0.295-0.525,0.949-0.703,1.474-0.409l1.899,1.048
			c0.509,0.295,0.705,0.966,0.41,1.474c-0.295,0.523-0.966,0.703-1.474,0.426L85.113,22.961z M94.984,23.093
			c-0.509,2.112-1.458,3.944-2.587,5.37c-1.245,1.605-3.258,2.915-5.926,3.455c-0.573,0.114-1.228-0.246-1.358-0.835
			c-0.131-0.655,0.343-1.146,0.884-1.277c2.374-0.573,3.783-1.474,4.699-2.636c1.048-1.342,1.72-2.75,2.276-4.748
			c0.146-0.573,0.785-0.899,1.342-0.719C94.886,21.882,95.149,22.471,94.984,23.093z"/>
	</g>
	<g>
		<path class="st1" d="M99.073,21.62c0-0.59,0.49-1.081,1.097-1.081h7.318c0.54,0,0.999,0.409,1.064,0.949h0.017
			c0,2.603,0.066,3.847-0.72,5.354c-1.079,1.899-2.832,3.863-4.256,5.337c-0.409,0.442-1.129,0.458-1.555,0.032
			c-0.425-0.426-0.393-1.097,0-1.538c1.735-1.931,2.998-3.176,3.946-4.813c0.475-0.835,0.475-1.425,0.442-3.144h-6.253
			C99.564,22.717,99.073,22.225,99.073,21.62z"/>
	</g>
	<g>
		<path class="st1" d="M122.397,27.922c-1.817,2.702-3.553,3.651-5.124,4.011c-0.851,0.18-1.375,0.246-2.52,0.262
			c-0.703-0.032-1.015-0.523-1.015-1.114V20.866c0-0.606,0.49-1.079,1.079-1.079c0.606,0,1.098,0.475,1.098,1.079v9.135
			c0.442,0,0.556-0.033,0.884-0.114c1.097-0.262,2.505-1.294,3.977-3.405c0.343-0.492,1.081-0.573,1.538-0.18
			C122.758,26.694,122.725,27.432,122.397,27.922z"/>
	</g>
	<g>
		<path class="st1" d="M126.844,25.384v-1.358c0-0.557,0.442-0.982,0.982-0.982c0.539,0,0.982,0.426,0.982,0.982v1.358
			c0,0.54-0.442,0.982-0.982,0.982C127.287,26.367,126.844,25.925,126.844,25.384z M129.889,30.608
			c1.359-1.359,2.39-2.292,3.307-4.027c0.197-0.393,0.197-0.688,0.213-1.064v-1.718c0-0.54,0.442-0.982,0.982-0.982
			c0.262,0,0.506,0.099,0.688,0.279c0.179,0.196,0.295,0.442,0.295,0.703v1.883c0,0.606-0.163,1.294-0.49,1.834
			c-0.966,1.67-2.307,3.324-3.88,4.748c-0.41,0.376-1.098,0.343-1.458-0.05C129.236,31.885,129.136,31.164,129.889,30.608z
			 M129.677,25.384v-1.358c0-0.557,0.442-0.982,0.982-0.982s0.982,0.426,0.982,0.982v1.358c0,0.54-0.442,0.982-0.982,0.982
			C130.119,26.367,129.677,25.925,129.677,25.384z"/>
	</g>
	<g>
		<path class="st1" d="M147.507,26.956c0,0-2.702-0.818-4.339-1.342v6.123c0,0.589-0.492,1.079-1.079,1.079
			c-0.606,0-1.081-0.49-1.081-1.079V20.178c0-0.589,0.475-1.081,1.081-1.081c0.588,0,1.079,0.492,1.079,1.081v3.208
			c1.768,0.507,5.009,1.507,5.009,1.507c0.573,0.18,0.884,0.786,0.703,1.358C148.702,26.825,148.08,27.136,147.507,26.956z"/>
	</g>
	<g>
		<path class="st1" d="M158.702,21.407h2.996c0.589,0,1.081,0.49,1.081,1.081c0,0.606-0.492,1.097-1.081,1.097h-2.636l0.41,2.014
			h2.472c0.606,0,1.081,0.475,1.081,1.081c0,0.589-0.475,1.079-1.081,1.079h-2.079l0.884,4.143c0.114,0.589-0.279,1.146-0.868,1.245
			c-0.59,0.114-1.162-0.279-1.261-0.869l-0.901-4.519h-3.634c-0.606,0-1.081-0.49-1.081-1.079c0-0.606,0.475-1.081,1.081-1.081
			h3.242l-0.41-2.014h-2.455c-0.606,0-1.098-0.49-1.098-1.097c0-0.59,0.492-1.081,1.098-1.081h2.046l-0.279-1.31
			c-0.114-0.589,0.279-1.146,0.869-1.261c0.589-0.097,1.162,0.295,1.26,0.884L158.702,21.407z M163.024,19.393v0.901
			c0,0.442-0.36,0.802-0.802,0.802c-0.459,0-0.818-0.36-0.818-0.802v-0.901c0-0.459,0.359-0.819,0.818-0.819
			C162.663,18.574,163.024,18.934,163.024,19.393z M165.087,19.393v0.901c0,0.442-0.36,0.802-0.818,0.802
			c-0.442,0-0.802-0.36-0.802-0.802v-0.901c0-0.459,0.36-0.819,0.802-0.819C164.726,18.574,165.087,18.934,165.087,19.393z"/>
	</g>
	<g>
		<path class="st1" d="M177.374,25.123c0,0.131-0.033,0.343-0.114,0.54c-0.426,0.982-1.211,2.03-1.866,2.636
			c-0.181,0.163-0.492,0.279-0.77,0.279c-0.426-0.017-0.901-0.327-0.901-0.966c0-0.279,0.114-0.557,0.344-0.753
			c0.262-0.279,0.475-0.523,0.655-0.753c-0.376,0-2.226,0-2.456,0c0.149,1.081,0.703,4.076,1.081,6.106
			c0.081,0.475-0.23,0.918-0.819,0.999c-0.54,0.082-1.048-0.295-1.146-0.819c0,0-1.064-6.106-1.097-6.286c-0.377,0-1.67,0-1.67,0
			c-0.54,0-0.982-0.442-0.982-0.982c0-0.523,0.377-0.982,0.982-0.982c0,0,1.079,0,1.31,0c-0.049-0.329-0.18-0.835-0.246-1.228
			c-0.049-0.36,0.163-0.933,0.835-1.048c0.426-0.082,1.048,0.246,1.146,0.802c0,0,0.23,1.31,0.262,1.474c1.605,0,4.453,0,4.453,0
			C176.817,24.141,177.374,24.501,177.374,25.123z"/>
	</g>
	<g>
		<path class="st1" d="M191.613,23.895c0.033,1.195-0.017,1.966-0.393,2.931c-0.573,1.571-3.388,4.665-4.715,5.697
			c-0.475,0.376-1.211,0.343-1.605-0.114c-0.376-0.459-0.229-1.114,0.197-1.523c2.08-1.964,3.52-3.553,4.027-4.616
			c0.197-0.36,0.262-0.753,0.279-1.294h-6.68c-0.588,0-1.079-0.475-1.079-1.081c0-0.589,0.492-1.079,1.079-1.079h7.744
			C191.137,22.847,191.596,23.306,191.613,23.895z M183.067,20.49c0-0.606,0.49-1.079,1.079-1.079h5.419
			c0.59,0,1.081,0.475,1.081,1.079c0,0.59-0.49,1.081-1.081,1.081h-5.419C183.558,21.57,183.067,21.08,183.067,20.49z"/>
	</g>
	<g>
		<path class="st1" d="M198.7,25.533c0,0.606-0.475,1.079-1.081,1.079c-0.59,0-1.097-0.475-1.097-1.079v-4.879
			c0-0.59,0.49-1.081,1.097-1.081c0.589,0,1.081,0.475,1.081,1.081V25.533z M203.498,27.399c-0.918,2.047-2.096,3.914-3.422,5.402
			c-0.393,0.442-1.146,0.475-1.588,0.083c-0.459-0.393-0.41-1.032-0.05-1.523c1.753-2.325,2.686-3.684,3.176-5.059
			c0.13-0.377,0.197-1.031,0.212-1.474c0.017-1.67,0-2.669-0.032-4.372c-0.017-0.606,0.459-1.098,1.064-1.114
			c0.589-0.017,1.114,0.458,1.097,1.048c0,1.064,0.033,3.094,0,4.502C203.939,25.81,203.808,26.597,203.498,27.399z"/>
	</g>
	<g>
		<path class="st1" d="M208.379,25.434c0-0.589,0.475-1.064,1.064-1.064h10.527c0.589,0,1.064,0.475,1.064,1.064
			s-0.475,1.079-1.064,1.079h-10.527C208.853,26.514,208.379,26.023,208.379,25.434z"/>
	</g>
</g>
</svg>
